<svg id="svg" version="1.1" xmlns="http://www.w3.org/2000/svg" xmlns:xlink="http://www.w3.org/1999/xlink" width="400" height="139.41176470588235" viewBox="0, 0, 400,139.41176470588235"><g id="svgg"><path id="path0" d="M3.000 42.581 L 3.000 83.333 9.076 83.333 L 15.152 83.333 15.248 82.792 C 15.301 82.494,15.323 64.175,15.297 42.083 L 15.250 1.917 9.125 1.873 L 3.000 1.829 3.000 42.581 M19.577 2.042 C 19.534 2.156,19.517 20.475,19.541 42.750 L 19.583 83.250 21.542 83.297 L 23.500 83.344 23.500 42.589 L 23.500 1.833 21.578 1.833 C 20.194 1.833,19.634 1.892,19.577 2.042 M27.875 42.536 L 27.917 83.250 29.833 83.250 L 31.750 83.250 31.750 42.583 L 31.750 1.917 29.791 1.870 L 27.833 1.823 27.875 42.536 M44.542 1.941 C 44.275 2.052,44.232 82.211,44.498 82.911 L 44.663 83.344 46.540 83.297 L 48.417 83.250 48.417 42.583 L 48.417 1.917 46.583 1.885 C 45.575 1.868,44.656 1.893,44.542 1.941 M52.911 2.040 C 52.867 2.155,52.850 20.475,52.874 42.750 L 52.917 83.250 59.000 83.250 L 65.083 83.250 65.083 42.583 L 65.083 1.917 59.037 1.873 C 54.290 1.839,52.974 1.874,52.911 2.040 M69.444 1.944 C 69.303 2.086,69.297 82.111,69.439 82.818 L 69.544 83.344 71.480 83.297 L 73.417 83.250 73.459 42.542 L 73.501 1.833 71.528 1.833 C 70.443 1.833,69.506 1.883,69.444 1.944 M77.780 1.942 C 77.640 2.082,77.632 82.437,77.772 82.958 L 77.872 83.333 83.926 83.333 L 89.980 83.333 90.080 82.625 C 90.135 82.235,90.158 63.917,90.131 41.917 L 90.083 1.917 83.988 1.873 C 80.636 1.849,77.842 1.880,77.780 1.942 M94.333 42.578 L 94.333 83.333 96.254 83.333 C 98.164 83.333,98.176 83.331,98.338 82.905 C 98.443 82.629,98.486 68.127,98.459 42.197 L 98.417 1.917 96.375 1.870 L 94.333 1.823 94.333 42.578 M111.042 1.941 C 110.777 2.051,110.732 82.211,110.996 82.906 C 111.219 83.492,114.688 83.583,114.994 83.010 C 115.113 82.789,115.154 69.951,115.125 42.302 L 115.083 1.917 113.167 1.886 C 112.112 1.868,111.156 1.893,111.042 1.941 M119.375 42.542 L 119.417 83.250 125.500 83.250 L 131.583 83.250 131.625 42.542 L 131.667 1.833 125.500 1.833 L 119.333 1.833 119.375 42.542 M136.000 42.581 L 136.000 83.333 142.080 83.333 L 148.160 83.333 148.251 82.958 C 148.300 82.752,148.321 64.433,148.296 42.250 L 148.250 1.917 142.125 1.873 L 136.000 1.829 136.000 42.581 M152.577 2.042 C 152.534 2.156,152.517 20.475,152.541 42.750 L 152.583 83.250 154.500 83.250 L 156.417 83.250 156.459 42.542 L 156.501 1.833 154.578 1.833 C 153.194 1.833,152.634 1.892,152.577 2.042 M160.910 2.042 C 160.867 2.156,160.850 20.475,160.874 42.750 L 160.917 83.250 166.962 83.294 L 173.007 83.337 173.170 82.908 C 173.484 82.083,173.385 2.055,173.070 1.934 C 172.512 1.720,160.994 1.822,160.910 2.042 M177.577 2.042 C 177.534 2.156,177.517 20.475,177.541 42.750 L 177.583 83.250 179.500 83.250 L 181.417 83.250 181.459 42.542 L 181.501 1.833 179.578 1.833 C 178.194 1.833,177.634 1.892,177.577 2.042 M194.167 42.589 L 194.167 83.344 196.125 83.297 L 198.083 83.250 198.125 42.542 L 198.167 1.833 196.167 1.833 L 194.167 1.833 194.167 42.589 M202.500 42.581 L 202.500 83.333 208.576 83.333 L 214.652 83.333 214.748 82.792 C 214.801 82.494,214.823 64.175,214.797 42.083 L 214.750 1.917 208.625 1.873 L 202.500 1.829 202.500 42.581 M219.116 1.939 C 218.974 2.082,218.959 82.700,219.101 83.070 C 219.269 83.507,222.757 83.454,222.994 83.010 C 223.113 82.789,223.154 69.951,223.125 42.302 L 223.083 1.917 221.158 1.870 C 220.099 1.844,219.180 1.876,219.116 1.939 M227.446 1.942 C 227.252 2.137,227.311 82.647,227.506 83.011 C 227.731 83.431,239.302 83.523,239.647 83.108 C 239.784 82.941,239.823 72.185,239.792 42.399 L 239.750 1.917 233.655 1.873 C 230.302 1.849,227.509 1.880,227.446 1.942 M244.079 2.036 C 244.034 2.154,244.017 20.475,244.041 42.750 L 244.083 83.250 246.037 83.297 C 247.951 83.343,247.993 83.336,248.083 82.964 C 248.133 82.754,248.154 64.433,248.129 42.250 L 248.083 1.917 246.122 1.870 C 244.645 1.834,244.140 1.876,244.079 2.036 M260.667 42.589 L 260.667 83.344 262.625 83.297 L 264.583 83.250 264.625 42.542 L 264.667 1.833 262.667 1.833 L 260.667 1.833 260.667 42.589 M269.000 42.581 L 269.000 83.333 275.080 83.333 L 281.160 83.333 281.251 82.958 C 281.300 82.752,281.321 64.433,281.296 42.250 L 281.250 1.917 275.125 1.873 L 269.000 1.829 269.000 42.581 M285.616 1.939 C 285.451 2.104,285.476 82.871,285.641 83.131 C 285.742 83.289,286.269 83.333,287.680 83.297 L 289.583 83.250 289.583 42.583 L 289.583 1.917 287.658 1.870 C 286.599 1.844,285.680 1.876,285.616 1.939 M293.944 1.944 C 293.806 2.083,293.800 82.443,293.939 82.960 L 294.040 83.337 300.145 83.294 L 306.250 83.250 306.292 42.542 L 306.334 1.833 300.195 1.833 C 296.818 1.833,294.006 1.883,293.944 1.944 M310.616 1.939 C 310.474 2.081,310.463 82.430,310.605 82.958 C 310.762 83.543,314.443 83.543,314.584 82.958 C 314.634 82.752,314.654 64.433,314.629 42.250 L 314.583 1.917 312.658 1.870 C 311.599 1.844,310.680 1.876,310.616 1.939 M327.167 42.589 L 327.167 83.344 329.125 83.297 L 331.083 83.250 331.125 42.542 L 331.167 1.833 329.167 1.833 L 327.167 1.833 327.167 42.589 M335.541 42.536 L 335.583 83.250 337.454 83.297 C 339.281 83.343,339.326 83.335,339.416 82.964 C 339.466 82.755,339.487 64.433,339.462 42.250 L 339.417 1.917 337.458 1.870 L 335.499 1.823 335.541 42.536 M343.875 42.536 L 343.917 83.250 345.787 83.297 C 347.615 83.343,347.660 83.335,347.749 82.964 C 347.800 82.755,347.821 64.433,347.796 42.250 L 347.750 1.917 345.791 1.870 L 343.833 1.823 343.875 42.536 M352.208 1.943 C 351.944 2.051,351.898 82.211,352.163 82.906 L 352.325 83.333 358.326 83.333 L 364.327 83.333 364.417 82.958 C 364.467 82.752,364.487 64.433,364.462 42.250 L 364.417 1.917 358.417 1.887 C 355.117 1.871,352.323 1.896,352.208 1.943 M377.116 1.939 C 376.972 2.083,376.960 82.093,377.104 82.812 L 377.208 83.333 379.097 83.333 L 380.985 83.333 381.081 82.792 C 381.134 82.494,381.156 64.175,381.130 42.083 L 381.083 1.917 379.158 1.870 C 378.099 1.844,377.180 1.876,377.116 1.939 M385.411 2.040 C 385.367 2.155,385.350 20.475,385.374 42.750 L 385.417 83.250 391.455 83.294 L 397.493 83.337 397.584 82.960 C 397.633 82.753,397.654 64.433,397.629 42.250 L 397.583 1.917 391.537 1.873 C 386.790 1.839,385.474 1.874,385.411 2.040 M35.679 95.439 C 35.489 95.681,35.333 95.998,35.333 96.144 C 35.333 96.372,35.002 97.326,34.485 98.583 C 34.410 98.767,34.153 99.498,33.914 100.209 C 33.675 100.920,33.372 101.708,33.241 101.959 C 33.109 102.211,33.002 102.518,33.001 102.641 C 33.000 102.765,32.900 103.103,32.777 103.391 C 32.504 104.037,32.285 104.634,31.575 106.667 C 31.271 107.537,30.865 108.662,30.673 109.167 C 30.078 110.728,29.135 113.384,28.927 114.083 C 28.818 114.450,28.648 114.938,28.549 115.167 C 28.450 115.396,28.259 115.883,28.123 116.250 C 27.987 116.617,27.716 117.331,27.521 117.837 C 27.326 118.342,27.167 118.852,27.167 118.970 C 27.167 119.087,27.042 119.423,26.890 119.717 C 26.738 120.010,26.556 120.475,26.485 120.750 C 26.321 121.384,25.874 122.649,25.660 123.083 C 25.569 123.267,25.427 123.642,25.343 123.917 C 25.260 124.192,24.963 125.047,24.684 125.816 C 24.057 127.548,24.022 127.500,25.926 127.500 L 27.498 127.500 27.814 126.792 C 28.180 125.972,28.613 124.704,28.852 123.757 C 28.943 123.394,29.072 123.019,29.140 122.923 C 29.207 122.828,29.440 122.188,29.659 121.500 C 29.877 120.813,30.226 119.800,30.434 119.250 L 30.813 118.250 35.987 118.206 L 41.160 118.162 41.432 118.789 C 41.581 119.134,41.765 119.642,41.841 119.917 C 42.017 120.562,42.497 121.937,42.779 122.609 C 42.901 122.897,43.000 123.211,43.000 123.306 C 43.000 123.401,43.087 123.689,43.193 123.947 C 43.299 124.206,43.619 125.092,43.904 125.917 L 44.423 127.417 46.211 127.464 C 47.195 127.490,48.000 127.463,48.000 127.404 C 48.000 127.195,46.800 123.747,46.670 123.583 C 46.598 123.492,46.485 123.168,46.420 122.864 C 46.355 122.560,46.197 122.110,46.069 121.864 C 45.940 121.618,45.835 121.302,45.834 121.162 C 45.834 121.022,45.732 120.760,45.608 120.579 C 45.483 120.398,45.339 120.063,45.287 119.833 C 45.235 119.604,44.994 118.892,44.752 118.250 C 43.941 116.099,43.644 115.253,43.549 114.833 C 43.497 114.604,43.398 114.342,43.328 114.250 C 43.258 114.158,42.997 113.483,42.749 112.750 C 42.500 112.017,42.195 111.192,42.071 110.917 C 41.948 110.642,41.655 109.823,41.422 109.098 C 41.188 108.373,40.931 107.698,40.851 107.598 C 40.771 107.498,40.649 107.154,40.580 106.834 C 40.457 106.259,40.322 105.893,39.747 104.583 C 39.587 104.217,39.395 103.692,39.322 103.417 C 39.144 102.744,38.706 101.535,38.409 100.891 C 38.276 100.603,38.167 100.294,38.167 100.205 C 38.167 100.046,37.674 98.743,37.229 97.725 C 37.103 97.436,37.000 97.098,36.999 96.975 C 36.998 96.851,36.897 96.558,36.775 96.322 C 36.652 96.087,36.501 95.693,36.439 95.447 C 36.298 94.885,36.116 94.883,35.679 95.439 M92.541 95.464 C 92.375 95.575,92.340 98.899,92.374 111.510 L 92.417 127.417 97.915 127.461 C 104.607 127.514,106.350 127.275,108.917 125.950 C 109.597 125.599,110.875 124.676,110.969 124.468 C 110.998 124.404,111.245 124.071,111.518 123.727 C 113.575 121.138,113.796 116.404,111.967 114.083 C 111.895 113.992,111.535 113.524,111.166 113.044 C 110.581 112.282,109.876 111.740,107.720 110.394 C 107.442 110.221,107.459 110.187,107.917 109.987 C 112.205 108.115,113.372 101.557,110.018 98.185 C 108.789 96.949,107.756 96.446,104.833 95.658 C 103.948 95.419,92.868 95.244,92.541 95.464 M166.083 95.680 C 164.396 96.230,162.785 97.150,161.909 98.062 C 161.400 98.592,160.184 100.273,159.997 100.705 C 159.908 100.913,159.770 101.196,159.691 101.333 C 158.368 103.652,157.776 106.797,157.762 111.583 C 157.749 115.671,157.772 115.849,158.832 119.986 C 158.965 120.508,159.337 121.379,159.691 122.000 C 159.770 122.138,159.910 122.425,160.002 122.639 C 162.057 127.414,169.029 129.467,174.162 126.808 C 175.934 125.891,178.401 123.049,178.916 121.333 C 178.985 121.104,179.093 120.842,179.156 120.750 C 181.034 118.027,180.960 107.226,179.029 102.250 C 176.966 96.934,171.205 94.010,166.083 95.680 M232.750 95.607 C 230.683 96.234,230.047 96.631,228.310 98.378 C 227.067 99.628,225.333 102.536,225.333 103.370 C 225.333 103.511,225.226 103.883,225.095 104.197 C 224.869 104.736,224.759 105.327,224.319 108.333 C 223.279 115.438,225.954 124.166,229.866 126.433 C 233.304 128.425,238.618 128.514,241.083 126.622 C 241.175 126.552,241.563 126.274,241.945 126.006 C 243.900 124.632,245.949 120.979,246.490 117.906 C 246.586 117.362,246.747 116.542,246.847 116.083 C 247.430 113.425,246.979 106.715,246.007 103.566 C 244.884 99.931,242.130 96.667,239.609 95.983 C 239.228 95.879,238.634 95.691,238.288 95.564 C 237.416 95.244,233.856 95.271,232.750 95.607 M299.250 95.607 C 298.187 95.929,296.793 96.568,296.313 96.952 C 295.317 97.749,294.326 98.744,293.895 99.380 C 293.632 99.767,293.372 100.121,293.316 100.167 C 293.165 100.290,292.333 101.890,292.333 102.057 C 292.333 102.135,292.230 102.436,292.104 102.725 C 290.957 105.357,290.308 111.561,290.829 114.917 C 291.237 117.547,291.350 118.154,291.603 119.083 C 291.962 120.403,292.515 121.852,292.784 122.180 C 292.903 122.325,293.000 122.494,293.000 122.556 C 293.000 123.249,295.764 126.166,296.970 126.746 C 298.992 127.720,299.583 127.867,301.819 127.955 C 305.522 128.099,308.386 126.776,310.444 123.969 C 311.028 123.173,312.333 120.641,312.334 120.300 C 312.335 120.181,312.437 119.888,312.562 119.650 C 312.686 119.411,312.842 118.848,312.909 118.400 C 312.975 117.951,313.135 117.174,313.265 116.673 C 313.659 115.148,313.591 107.974,313.165 106.198 C 312.983 105.436,312.833 104.676,312.833 104.508 C 312.833 104.341,312.721 103.990,312.584 103.727 C 312.447 103.465,312.335 103.135,312.334 102.995 C 312.334 102.855,312.231 102.593,312.106 102.412 C 311.981 102.231,311.822 101.896,311.753 101.667 C 310.420 97.232,304.057 94.148,299.250 95.607 M358.833 95.489 C 358.507 95.705,358.361 126.882,358.685 127.272 C 359.230 127.929,370.151 127.398,371.083 126.669 C 371.175 126.597,371.512 126.483,371.833 126.416 C 372.971 126.176,376.495 123.320,376.499 122.633 C 376.500 122.569,376.725 122.183,377.000 121.776 C 377.275 121.368,377.500 120.989,377.500 120.932 C 377.500 120.876,377.639 120.512,377.808 120.123 C 378.236 119.141,378.632 117.873,378.759 117.083 C 378.818 116.717,378.976 115.975,379.110 115.435 C 379.538 113.715,379.444 108.521,378.942 106.152 C 377.687 100.231,374.744 96.891,369.750 95.719 C 368.364 95.393,359.267 95.202,358.833 95.489 M103.013 98.578 C 106.613 99.086,108.333 100.711,108.333 103.602 C 108.333 105.718,107.562 106.956,105.667 107.880 C 104.007 108.690,96.221 109.057,95.839 108.344 C 95.534 107.775,95.612 99.152,95.926 98.704 C 96.251 98.240,100.128 98.171,103.013 98.578 M170.521 98.605 C 171.197 98.755,171.868 98.980,172.013 99.105 C 172.158 99.231,172.345 99.334,172.430 99.335 C 173.217 99.346,176.000 103.481,176.000 104.640 C 176.000 104.786,176.105 105.208,176.233 105.578 C 177.016 107.837,176.972 116.662,176.171 118.159 C 176.077 118.335,176.000 118.633,176.000 118.823 C 176.000 119.013,175.850 119.448,175.667 119.790 C 175.483 120.132,175.333 120.504,175.333 120.617 C 175.333 120.991,173.941 122.859,173.256 123.406 C 170.574 125.544,166.778 125.308,164.395 122.855 C 161.256 119.623,160.265 109.116,162.593 103.750 C 162.713 103.475,162.860 103.074,162.921 102.859 C 163.420 101.103,165.755 99.027,167.709 98.603 C 169.119 98.296,169.125 98.296,170.521 98.605 M236.841 98.585 C 238.477 98.929,241.167 100.803,241.167 101.598 C 241.167 101.703,241.317 101.979,241.500 102.212 C 241.683 102.445,241.833 102.768,241.833 102.930 C 241.833 103.091,241.932 103.342,242.052 103.487 C 243.409 105.121,243.903 116.671,242.683 118.242 C 242.608 118.338,242.500 118.662,242.444 118.961 C 241.242 125.302,233.443 126.906,229.831 121.554 C 229.557 121.148,229.333 120.705,229.333 120.569 C 229.333 120.433,229.230 120.155,229.103 119.952 C 228.721 119.339,228.191 116.559,227.978 114.050 C 227.612 109.727,228.259 105.149,229.589 102.667 C 229.711 102.438,229.944 101.992,230.107 101.677 C 230.850 100.231,232.551 98.960,234.236 98.590 C 235.572 98.296,235.469 98.296,236.841 98.585 M303.432 98.602 C 307.687 99.482,310.240 104.867,309.957 112.361 C 309.645 120.653,307.081 124.722,302.167 124.725 C 296.776 124.729,294.599 121.023,294.593 111.833 C 294.588 103.614,296.451 99.647,300.814 98.588 C 302.034 98.292,301.929 98.292,303.432 98.602 M367.679 98.591 C 373.286 99.423,375.862 103.586,375.874 111.833 C 375.879 115.358,375.500 117.236,374.238 119.945 C 373.543 121.435,371.192 123.557,369.774 123.973 C 367.423 124.662,367.251 124.685,364.667 124.634 L 362.083 124.583 362.041 111.764 C 362.001 100.014,362.021 98.920,362.275 98.639 C 362.635 98.241,365.166 98.218,367.679 98.591 M36.662 104.667 C 36.777 104.987,36.971 105.587,37.094 106.000 C 37.217 106.412,37.626 107.612,38.003 108.667 C 38.380 109.721,38.789 110.921,38.912 111.333 C 39.035 111.746,39.361 112.721,39.637 113.500 C 40.323 115.438,40.529 115.333,36.013 115.333 C 31.594 115.333,31.736 115.389,32.289 113.867 C 32.512 113.252,32.794 112.440,32.916 112.062 C 33.039 111.684,33.212 111.234,33.301 111.062 C 33.390 110.890,33.653 110.150,33.886 109.417 C 34.119 108.683,34.471 107.671,34.668 107.167 C 34.865 106.662,35.100 105.987,35.191 105.667 C 35.592 104.241,36.175 103.285,36.345 103.774 C 36.405 103.944,36.547 104.346,36.662 104.667 M104.667 112.126 C 107.993 113.117,109.388 114.933,109.385 118.263 C 109.382 120.256,108.818 121.593,107.458 122.823 C 106.875 123.350,106.461 123.559,105.083 124.019 C 104.041 124.367,96.373 124.421,95.999 124.082 C 95.586 123.708,95.470 112.268,95.875 111.854 C 96.228 111.493,103.276 111.712,104.667 112.126 " stroke="none" fill="#f6f6f6" fill-rule="evenodd"></path><path id="path1" d="M0.000 69.667 L 0.000 139.333 200.000 139.333 L 400.000 139.333 400.000 69.667 L 400.000 0.000 200.000 0.000 L 0.000 0.000 0.000 69.667 M15.297 42.083 C 15.323 64.175,15.301 82.494,15.248 82.792 L 15.152 83.333 9.076 83.333 L 3.000 83.333 3.000 42.581 L 3.000 1.829 9.125 1.873 L 15.250 1.917 15.297 42.083 M23.500 42.589 L 23.500 83.344 21.542 83.297 L 19.583 83.250 19.541 42.750 C 19.517 20.475,19.534 2.156,19.577 2.042 C 19.634 1.892,20.194 1.833,21.578 1.833 L 23.500 1.833 23.500 42.589 M31.750 42.583 L 31.750 83.250 29.833 83.250 L 27.917 83.250 27.875 42.536 L 27.833 1.823 29.791 1.870 L 31.750 1.917 31.750 42.583 M48.417 42.583 L 48.417 83.250 46.540 83.297 L 44.663 83.344 44.498 82.911 C 44.232 82.211,44.275 2.052,44.542 1.941 C 44.656 1.893,45.575 1.868,46.583 1.885 L 48.417 1.917 48.417 42.583 M65.083 42.583 L 65.083 83.250 59.000 83.250 L 52.917 83.250 52.874 42.750 C 52.850 20.475,52.867 2.155,52.911 2.040 C 52.974 1.874,54.290 1.839,59.037 1.873 L 65.083 1.917 65.083 42.583 M73.459 42.542 L 73.417 83.250 71.480 83.297 L 69.544 83.344 69.439 82.818 C 69.297 82.111,69.303 2.086,69.444 1.944 C 69.506 1.883,70.443 1.833,71.528 1.833 L 73.501 1.833 73.459 42.542 M90.131 41.917 C 90.158 63.917,90.135 82.235,90.080 82.625 L 89.980 83.333 83.926 83.333 L 77.872 83.333 77.772 82.958 C 77.632 82.437,77.640 2.082,77.780 1.942 C 77.842 1.880,80.636 1.849,83.988 1.873 L 90.083 1.917 90.131 41.917 M98.459 42.197 C 98.486 68.127,98.443 82.629,98.338 82.905 C 98.176 83.331,98.164 83.333,96.254 83.333 L 94.333 83.333 94.333 42.578 L 94.333 1.823 96.375 1.870 L 98.417 1.917 98.459 42.197 M115.125 42.302 C 115.154 69.951,115.113 82.789,114.994 83.010 C 114.688 83.583,111.219 83.492,110.996 82.906 C 110.732 82.211,110.777 2.051,111.042 1.941 C 111.156 1.893,112.112 1.868,113.167 1.886 L 115.083 1.917 115.125 42.302 M131.625 42.542 L 131.583 83.250 125.500 83.250 L 119.417 83.250 119.375 42.542 L 119.333 1.833 125.500 1.833 L 131.667 1.833 131.625 42.542 M148.296 42.250 C 148.321 64.433,148.300 82.752,148.251 82.958 L 148.160 83.333 142.080 83.333 L 136.000 83.333 136.000 42.581 L 136.000 1.829 142.125 1.873 L 148.250 1.917 148.296 42.250 M156.459 42.542 L 156.417 83.250 154.500 83.250 L 152.583 83.250 152.541 42.750 C 152.517 20.475,152.534 2.156,152.577 2.042 C 152.634 1.892,153.194 1.833,154.578 1.833 L 156.501 1.833 156.459 42.542 M173.070 1.934 C 173.385 2.055,173.484 82.083,173.170 82.908 L 173.007 83.337 166.962 83.294 L 160.917 83.250 160.874 42.750 C 160.850 20.475,160.867 2.156,160.910 2.042 C 160.994 1.822,172.512 1.720,173.070 1.934 M181.459 42.542 L 181.417 83.250 179.500 83.250 L 177.583 83.250 177.541 42.750 C 177.517 20.475,177.534 2.156,177.577 2.042 C 177.634 1.892,178.194 1.833,179.578 1.833 L 181.501 1.833 181.459 42.542 M198.125 42.542 L 198.083 83.250 196.125 83.297 L 194.167 83.344 194.167 42.589 L 194.167 1.833 196.167 1.833 L 198.167 1.833 198.125 42.542 M214.797 42.083 C 214.823 64.175,214.801 82.494,214.748 82.792 L 214.652 83.333 208.576 83.333 L 202.500 83.333 202.500 42.581 L 202.500 1.829 208.625 1.873 L 214.750 1.917 214.797 42.083 M223.125 42.302 C 223.154 69.951,223.113 82.789,222.994 83.010 C 222.757 83.454,219.269 83.507,219.101 83.070 C 218.959 82.700,218.974 2.082,219.116 1.939 C 219.180 1.876,220.099 1.844,221.158 1.870 L 223.083 1.917 223.125 42.302 M239.792 42.399 C 239.823 72.185,239.784 82.941,239.647 83.108 C 239.302 83.523,227.731 83.431,227.506 83.011 C 227.311 82.647,227.252 2.137,227.446 1.942 C 227.509 1.880,230.302 1.849,233.655 1.873 L 239.750 1.917 239.792 42.399 M248.129 42.250 C 248.154 64.433,248.133 82.754,248.083 82.964 C 247.993 83.336,247.951 83.343,246.037 83.297 L 244.083 83.250 244.041 42.750 C 244.017 20.475,244.034 2.154,244.079 2.036 C 244.140 1.876,244.645 1.834,246.122 1.870 L 248.083 1.917 248.129 42.250 M264.625 42.542 L 264.583 83.250 262.625 83.297 L 260.667 83.344 260.667 42.589 L 260.667 1.833 262.667 1.833 L 264.667 1.833 264.625 42.542 M281.296 42.250 C 281.321 64.433,281.300 82.752,281.251 82.958 L 281.160 83.333 275.080 83.333 L 269.000 83.333 269.000 42.581 L 269.000 1.829 275.125 1.873 L 281.250 1.917 281.296 42.250 M289.583 42.583 L 289.583 83.250 287.680 83.297 C 286.269 83.333,285.742 83.289,285.641 83.131 C 285.476 82.871,285.451 2.104,285.616 1.939 C 285.680 1.876,286.599 1.844,287.658 1.870 L 289.583 1.917 289.583 42.583 M306.292 42.542 L 306.250 83.250 300.145 83.294 L 294.040 83.337 293.939 82.960 C 293.800 82.443,293.806 2.083,293.944 1.944 C 294.006 1.883,296.818 1.833,300.195 1.833 L 306.334 1.833 306.292 42.542 M314.629 42.250 C 314.654 64.433,314.634 82.752,314.584 82.958 C 314.443 83.543,310.762 83.543,310.605 82.958 C 310.463 82.430,310.474 2.081,310.616 1.939 C 310.680 1.876,311.599 1.844,312.658 1.870 L 314.583 1.917 314.629 42.250 M331.125 42.542 L 331.083 83.250 329.125 83.297 L 327.167 83.344 327.167 42.589 L 327.167 1.833 329.167 1.833 L 331.167 1.833 331.125 42.542 M339.462 42.250 C 339.487 64.433,339.466 82.755,339.416 82.964 C 339.326 83.335,339.281 83.343,337.454 83.297 L 335.583 83.250 335.541 42.536 L 335.499 1.823 337.458 1.870 L 339.417 1.917 339.462 42.250 M347.796 42.250 C 347.821 64.433,347.800 82.755,347.749 82.964 C 347.660 83.335,347.615 83.343,345.787 83.297 L 343.917 83.250 343.875 42.536 L 343.833 1.823 345.791 1.870 L 347.750 1.917 347.796 42.250 M364.462 42.250 C 364.487 64.433,364.467 82.752,364.417 82.958 L 364.327 83.333 358.326 83.333 L 352.325 83.333 352.163 82.906 C 351.898 82.211,351.944 2.051,352.208 1.943 C 352.323 1.896,355.117 1.871,358.417 1.887 L 364.417 1.917 364.462 42.250 M381.130 42.083 C 381.156 64.175,381.134 82.494,381.081 82.792 L 380.985 83.333 379.097 83.333 L 377.208 83.333 377.104 82.812 C 376.960 82.093,376.972 2.083,377.116 1.939 C 377.180 1.876,378.099 1.844,379.158 1.870 L 381.083 1.917 381.130 42.083 M397.629 42.250 C 397.654 64.433,397.633 82.753,397.584 82.960 L 397.493 83.337 391.455 83.294 L 385.417 83.250 385.374 42.750 C 385.350 20.475,385.367 2.155,385.411 2.040 C 385.474 1.874,386.790 1.839,391.537 1.873 L 397.583 1.917 397.629 42.250 M36.439 95.447 C 36.501 95.693,36.652 96.087,36.775 96.322 C 36.897 96.558,36.998 96.851,36.999 96.975 C 37.000 97.098,37.103 97.436,37.229 97.725 C 37.674 98.743,38.167 100.046,38.167 100.205 C 38.167 100.294,38.276 100.603,38.409 100.891 C 38.706 101.535,39.144 102.744,39.322 103.417 C 39.395 103.692,39.587 104.217,39.747 104.583 C 40.322 105.893,40.457 106.259,40.580 106.834 C 40.649 107.154,40.771 107.498,40.851 107.598 C 40.931 107.698,41.188 108.373,41.422 109.098 C 41.655 109.823,41.948 110.642,42.071 110.917 C 42.195 111.192,42.500 112.017,42.749 112.750 C 42.997 113.483,43.258 114.158,43.328 114.250 C 43.398 114.342,43.497 114.604,43.549 114.833 C 43.644 115.253,43.941 116.099,44.752 118.250 C 44.994 118.892,45.235 119.604,45.287 119.833 C 45.339 120.063,45.483 120.398,45.608 120.579 C 45.732 120.760,45.834 121.022,45.834 121.162 C 45.835 121.302,45.940 121.618,46.069 121.864 C 46.197 122.110,46.355 122.560,46.420 122.864 C 46.485 123.168,46.598 123.492,46.670 123.583 C 46.800 123.747,48.000 127.195,48.000 127.404 C 48.000 127.463,47.195 127.490,46.211 127.464 L 44.423 127.417 43.904 125.917 C 43.619 125.092,43.299 124.206,43.193 123.947 C 43.087 123.689,43.000 123.401,43.000 123.306 C 43.000 123.211,42.901 122.897,42.779 122.609 C 42.497 121.937,42.017 120.562,41.841 119.917 C 41.765 119.642,41.581 119.134,41.432 118.789 L 41.160 118.162 35.987 118.206 L 30.813 118.250 30.434 119.250 C 30.226 119.800,29.877 120.813,29.659 121.500 C 29.440 122.188,29.207 122.828,29.140 122.923 C 29.072 123.019,28.943 123.394,28.852 123.757 C 28.613 124.704,28.180 125.972,27.814 126.792 L 27.498 127.500 25.926 127.500 C 24.022 127.500,24.057 127.548,24.684 125.816 C 24.963 125.047,25.260 124.192,25.343 123.917 C 25.427 123.642,25.569 123.267,25.660 123.083 C 25.874 122.649,26.321 121.384,26.485 120.750 C 26.556 120.475,26.738 120.010,26.890 119.717 C 27.042 119.423,27.167 119.087,27.167 118.970 C 27.167 118.852,27.326 118.342,27.521 117.837 C 27.716 117.331,27.987 116.617,28.123 116.250 C 28.259 115.883,28.450 115.396,28.549 115.167 C 28.648 114.938,28.818 114.450,28.927 114.083 C 29.135 113.384,30.078 110.728,30.673 109.167 C 30.865 108.662,31.271 107.537,31.575 106.667 C 32.285 104.634,32.504 104.037,32.777 103.391 C 32.900 103.103,33.000 102.765,33.001 102.641 C 33.002 102.518,33.109 102.211,33.241 101.959 C 33.372 101.708,33.675 100.920,33.914 100.209 C 34.153 99.498,34.410 98.767,34.485 98.583 C 35.002 97.326,35.333 96.372,35.333 96.144 C 35.333 95.356,36.268 94.767,36.439 95.447 M104.833 95.658 C 107.756 96.446,108.789 96.949,110.018 98.185 C 113.372 101.557,112.205 108.115,107.917 109.987 C 107.459 110.187,107.442 110.221,107.720 110.394 C 109.876 111.740,110.581 112.282,111.166 113.044 C 111.535 113.524,111.895 113.992,111.967 114.083 C 113.796 116.404,113.575 121.138,111.518 123.727 C 111.245 124.071,110.998 124.404,110.969 124.468 C 110.875 124.676,109.597 125.599,108.917 125.950 C 106.350 127.275,104.607 127.514,97.915 127.461 L 92.417 127.417 92.374 111.510 C 92.340 98.899,92.375 95.575,92.541 95.464 C 92.868 95.244,103.948 95.419,104.833 95.658 M172.288 95.702 C 176.567 97.098,179.140 100.631,180.246 106.628 C 180.604 108.572,180.597 114.680,180.234 116.645 C 179.952 118.171,179.348 120.471,179.156 120.750 C 179.093 120.842,178.985 121.104,178.916 121.333 C 178.401 123.049,175.934 125.891,174.162 126.808 C 169.029 129.467,162.057 127.414,160.002 122.639 C 159.910 122.425,159.770 122.138,159.691 122.000 C 159.337 121.379,158.965 120.508,158.832 119.986 C 157.772 115.849,157.749 115.671,157.762 111.583 C 157.776 106.797,158.368 103.652,159.691 101.333 C 159.770 101.196,159.908 100.913,159.997 100.705 C 160.184 100.273,161.400 98.592,161.909 98.062 C 164.171 95.706,168.963 94.616,172.288 95.702 M238.288 95.564 C 238.634 95.691,239.228 95.879,239.609 95.983 C 242.130 96.667,244.884 99.931,246.007 103.566 C 246.979 106.715,247.430 113.425,246.847 116.083 C 246.747 116.542,246.586 117.362,246.490 117.906 C 245.949 120.979,243.900 124.632,241.945 126.006 C 241.563 126.274,241.175 126.552,241.083 126.622 C 238.618 128.514,233.304 128.425,229.866 126.433 C 225.954 124.166,223.279 115.438,224.319 108.333 C 224.759 105.327,224.869 104.736,225.095 104.197 C 225.226 103.883,225.333 103.511,225.333 103.370 C 225.333 102.136,228.063 98.230,229.871 96.878 C 231.620 95.571,236.312 94.838,238.288 95.564 M305.443 95.752 C 308.168 96.610,311.043 99.305,311.753 101.667 C 311.822 101.896,311.981 102.231,312.106 102.412 C 312.231 102.593,312.334 102.855,312.334 102.995 C 312.335 103.135,312.447 103.465,312.584 103.727 C 312.721 103.990,312.833 104.341,312.833 104.508 C 312.833 104.676,312.983 105.436,313.165 106.198 C 313.591 107.974,313.659 115.148,313.265 116.673 C 313.135 117.174,312.975 117.951,312.909 118.400 C 312.842 118.848,312.686 119.411,312.562 119.650 C 312.437 119.888,312.335 120.181,312.334 120.300 C 312.333 120.641,311.028 123.173,310.444 123.969 C 308.386 126.776,305.522 128.099,301.819 127.955 C 299.583 127.867,298.992 127.720,296.970 126.746 C 295.764 126.166,293.000 123.249,293.000 122.556 C 293.000 122.494,292.903 122.325,292.784 122.180 C 292.515 121.852,291.962 120.403,291.603 119.083 C 291.350 118.154,291.237 117.547,290.829 114.917 C 290.308 111.561,290.957 105.357,292.104 102.725 C 292.230 102.436,292.333 102.135,292.333 102.057 C 292.333 101.890,293.165 100.290,293.316 100.167 C 293.372 100.121,293.632 99.767,293.895 99.380 C 294.326 98.744,295.317 97.749,296.313 96.952 C 298.250 95.402,302.539 94.838,305.443 95.752 M369.750 95.719 C 374.744 96.891,377.687 100.231,378.942 106.152 C 379.444 108.521,379.538 113.715,379.110 115.435 C 378.976 115.975,378.818 116.717,378.759 117.083 C 378.632 117.873,378.236 119.141,377.808 120.123 C 377.639 120.512,377.500 120.876,377.500 120.932 C 377.500 120.989,377.275 121.368,377.000 121.776 C 376.725 122.183,376.500 122.569,376.499 122.633 C 376.495 123.320,372.971 126.176,371.833 126.416 C 371.512 126.483,371.175 126.597,371.083 126.669 C 370.151 127.398,359.230 127.929,358.685 127.272 C 358.361 126.882,358.507 95.705,358.833 95.489 C 359.267 95.202,368.364 95.393,369.750 95.719 M95.926 98.704 C 95.612 99.152,95.534 107.775,95.839 108.344 C 96.221 109.057,104.007 108.690,105.667 107.880 C 109.506 106.007,109.348 101.179,105.381 99.147 C 103.774 98.324,96.433 97.980,95.926 98.704 M167.709 98.603 C 165.755 99.027,163.420 101.103,162.921 102.859 C 162.860 103.074,162.713 103.475,162.593 103.750 C 160.784 107.921,161.008 116.811,163.027 120.939 C 164.974 124.919,169.875 126.101,173.256 123.406 C 173.941 122.859,175.333 120.991,175.333 120.617 C 175.333 120.504,175.483 120.132,175.667 119.790 C 175.850 119.448,176.000 119.013,176.000 118.823 C 176.000 118.633,176.077 118.335,176.171 118.159 C 176.972 116.662,177.016 107.837,176.233 105.578 C 176.105 105.208,176.000 104.786,176.000 104.640 C 176.000 103.481,173.217 99.346,172.430 99.335 C 172.345 99.334,172.158 99.231,172.013 99.105 C 171.746 98.874,169.519 98.315,169.021 98.355 C 168.872 98.367,168.281 98.478,167.709 98.603 M234.236 98.590 C 232.551 98.960,230.850 100.231,230.107 101.677 C 229.944 101.992,229.711 102.438,229.589 102.667 C 228.259 105.149,227.612 109.727,227.978 114.050 C 228.191 116.559,228.721 119.339,229.103 119.952 C 229.230 120.155,229.333 120.433,229.333 120.569 C 229.333 121.370,231.407 123.589,232.770 124.246 C 234.129 124.901,237.091 124.947,238.417 124.334 C 240.050 123.578,242.083 120.867,242.444 118.961 C 242.500 118.662,242.608 118.338,242.683 118.242 C 243.903 116.671,243.409 105.121,242.052 103.487 C 241.932 103.342,241.833 103.091,241.833 102.930 C 241.833 102.768,241.683 102.445,241.500 102.212 C 241.317 101.979,241.167 101.703,241.167 101.598 C 241.167 100.803,238.477 98.929,236.841 98.585 C 235.469 98.296,235.572 98.296,234.236 98.590 M300.814 98.588 C 296.451 99.647,294.588 103.614,294.593 111.833 C 294.599 121.023,296.776 124.729,302.167 124.725 C 307.081 124.722,309.645 120.653,309.957 112.361 C 310.240 104.867,307.687 99.482,303.432 98.602 C 301.929 98.292,302.034 98.292,300.814 98.588 M362.275 98.639 C 362.021 98.920,362.001 100.014,362.041 111.764 L 362.083 124.583 364.667 124.634 C 367.251 124.685,367.423 124.662,369.774 123.973 C 373.511 122.877,375.883 118.158,375.874 111.833 C 375.862 103.586,373.286 99.423,367.679 98.591 C 365.166 98.218,362.635 98.241,362.275 98.639 M36.057 103.690 C 35.811 104.000,35.389 104.963,35.191 105.667 C 35.100 105.987,34.865 106.662,34.668 107.167 C 34.471 107.671,34.119 108.683,33.886 109.417 C 33.653 110.150,33.390 110.890,33.301 111.062 C 33.212 111.234,33.039 111.684,32.916 112.062 C 32.794 112.440,32.512 113.252,32.289 113.867 C 31.736 115.389,31.594 115.333,36.013 115.333 C 40.529 115.333,40.323 115.438,39.637 113.500 C 39.361 112.721,39.035 111.746,38.912 111.333 C 38.789 110.921,38.380 109.721,38.003 108.667 C 37.626 107.612,37.217 106.412,37.094 106.000 C 36.971 105.587,36.777 104.987,36.662 104.667 C 36.547 104.346,36.405 103.944,36.345 103.774 C 36.257 103.520,36.205 103.505,36.057 103.690 M95.875 111.854 C 95.470 112.268,95.586 123.708,95.999 124.082 C 96.373 124.421,104.041 124.367,105.083 124.019 C 106.461 123.559,106.875 123.350,107.458 122.823 C 108.818 121.593,109.382 120.256,109.385 118.263 C 109.388 114.933,107.993 113.117,104.667 112.126 C 103.276 111.712,96.228 111.493,95.875 111.854 " stroke="none" fill="#000000" fill-rule="evenodd"></path></g></svg>